<svg xmlns="http://www.w3.org/2000/svg" viewBox="0 0 160 48" fill="none">
  <!-- Llama metodista estilizada -->
  <path d="M14 38 C14 38 8 28 12 20 C14 16 16 18 16 18 C16 18 13 24 18 28 C18 28 17 22 21 20 C23 18 24 22 24 22 C24 22 22 26 26 30 C26 30 24 24 28 22 C30 20 31 26 28 32 C26 36 22 38 22 38 Z" fill="#8B1A1A"/>
  <!-- Círculo base -->
  <circle cx="20" cy="34" r="5" fill="#D4A017" opacity="0.3"/>
  <!-- Texto IEMB -->
  <text x="36" y="24" font-family="Georgia, serif" font-size="15" font-weight="700" fill="#8B1A1A" letter-spacing="1">IEMB</text>
  <!-- Texto completo -->
  <text x="36" y="37" font-family="Arial, sans-serif" font-size="7" fill="#504B46" letter-spacing="0.3">IGLESIA EVANGÉLICA METODISTA</text>
  <text x="36" y="46" font-family="Arial, sans-serif" font-size="7" fill="#504B46" letter-spacing="0.3">EN BOLIVIA</text>
</svg>
